<svg xmlns="http://www.w3.org/2000/svg" xmlns:xlink="http://www.w3.org/1999/xlink" version="1.1" x="0px" y="0px" viewBox="0 0 100 100" enable-background="new 0 0 100 100" xml:space="preserve"><path d="M77.323,15.438c-0.757-3.407-3.789-9.306-8.242-10.222c-4.454-0.916-7.043,1.2-7.918,3.067  c-1.258,2.684-1.481,6.336,2.319,9.302c2.704,2.111,5.074,2.658,5.14,5.623c0.041,1.873-1.666,3.081-2.705,3.788  c0-0.417-0.167-0.75,0.041-1.041c0.417-0.25,1.373-1.706,0.874-2.83c-1.227,0-31.659,0-32.887,0c-0.499,1.124,0.458,2.58,0.874,2.83  c0.208,0.292,0.042,0.625,0.042,1.041c-1.04-0.707-2.747-1.915-2.705-3.788c0.066-2.965,2.435-3.512,5.139-5.623  c3.801-2.966,3.578-6.619,2.319-9.302c-0.875-1.867-3.464-3.982-7.917-3.067c-4.454,0.916-7.485,6.814-8.243,10.222  c-1.079,4.857-0.784,13.332,0.825,20.163c2,8.493,6.867,21.568,7.834,24.097s3.059,8.053,4.432,10.207  c1.374,2.153,3.166,5.661,4.435,8.176c0.146,2.686,0.831,2.711,1.196,3.198c2.417,3.126,0.489,4.908-0.073,5.739  c-0.562,0.83-2.954,2.148-4.761,2.709c-1.807,0.562-2.93,1.417-3.687,2.271S32.973,94.195,33.388,95c0.802,0,33.176,0,34.001,0  c0.415-0.805,0.488-2.147-0.269-3.002s-1.88-1.71-3.687-2.271c-1.808-0.561-4.199-1.879-4.762-2.709  c-0.562-0.831-2.49-2.613-0.073-5.739c0.366-0.487,1.051-0.513,1.197-3.198c1.269-2.515,3.061-6.022,4.435-8.176  c1.373-2.154,3.465-7.679,4.432-10.207c0.968-2.528,5.835-15.604,7.835-24.097C78.106,28.77,78.402,20.295,77.323,15.438z   M29.118,34.695c-0.167,4.661,1.245,13.738,1.869,16.859c0,0-2.743-7.995-4.199-13.738c-1.457-5.743-1.85-11.502-1.707-17.479  c0.138-5.791,2.61-11.101,6.231-12.641c3.621-1.54,6.42,0.322,6.629,3.568c0.208,3.246-2.995,4.834-4.818,6.136  c-2.595,1.854-4.042,4.86-2.503,7.648c1.133,2.051,3.534,3.321,3.741,4.944C34.569,31.616,30.783,33.946,29.118,34.695z   M73.99,37.816c-1.456,5.744-4.199,13.738-4.199,13.738c0.624-3.122,2.036-12.198,1.869-16.859c-1.665-0.75-5.452-3.08-5.244-4.703  s2.608-2.893,3.742-4.944c1.539-2.789,0.091-5.794-2.503-7.648c-1.823-1.302-5.026-2.89-4.819-6.136  c0.209-3.247,3.009-5.108,6.629-3.568c3.621,1.54,6.093,6.851,6.231,12.641C75.84,26.314,75.446,32.073,73.99,37.816z"/><text x="35" y="98" fill="#000000" font-size="2px" font-family="'Helvetica Neue', Helvetica, Arial-Unicode, Arial, Sans-serif">Jaime Carrion - the Noun Project</text></svg>